<svg xmlns:xlink="http://www.w3.org/1999/xlink" xmlns="http://www.w3.org/2000/svg" class="nc-icon" aria-labelledby="MLC1743" role="img" width="48"  height="48" ><defs><symbol id="nc-car-front" viewBox="0 0 48 48"><g><g class="nc-icon-wrapper"><path fill="none" stroke="#000000" stroke-miterlimit="10" d="M42,20L40.231,6.736 C40.099,5.742,39.251,5,38.249,5H9.751c-1.002,0-1.85,0.742-1.982,1.736L6,20" stroke-linecap="butt" stroke-linejoin="miter"></path><polyline fill="none" stroke-linecap="square" stroke-miterlimit="10" points=" 14,37 14,43 5,43 5,37 " stroke-linejoin="miter"></polyline><polyline fill="none" stroke-linecap="square" stroke-miterlimit="10" points=" 43,37 43,43 34,43 34,37 " stroke-linejoin="miter"></polyline><path fill="none" stroke="#000000" stroke-linecap="square" stroke-miterlimit="10" d="M46,37H2V26.403 c0-0.908,0.309-1.79,0.877-2.499L6,20h36l3.123,3.904C45.691,24.614,46,25.495,46,26.403V37z" stroke-linejoin="miter"></path><circle fill="none" stroke-linecap="square" stroke-miterlimit="10" cx="38" cy="29" r="3" stroke-linejoin="miter"></circle><circle fill="none" stroke-linecap="square" stroke-miterlimit="10" cx="10" cy="29" r="3" stroke-linejoin="miter"></circle><line fill="none" stroke-linecap="square" stroke-miterlimit="10" x1="21" y1="29" x2="27" y2="29" stroke-linejoin="miter"></line></g></g></symbol></defs><title id="MLC1743">Autos, Motos y Otros</title><use xlink:href="#nc-car-front" stroke="#3483FA" fill="none" stroke-width="2px">Autos, Motos y Otros</use></svg>