<svg xmlns:xlink="http://www.w3.org/1999/xlink" xmlns="http://www.w3.org/2000/svg" class="nc-icon" aria-labelledby="MLC1574" role="img" width="48"  height="48" ><defs><symbol id="nc-armchair" viewBox="0 0 48 48"><g><g class="nc-icon-wrapper"><line fill="none" stroke-linecap="square" stroke-miterlimit="10" x1="8" y1="46" x2="8" y2="42" stroke-linejoin="miter"></line><line fill="none" stroke-linecap="square" stroke-miterlimit="10" x1="40" y1="46" x2="40" y2="42" stroke-linejoin="miter"></line><path fill="none" stroke-miterlimit="10" d="M40,23.1V6c0-2.2-1.8-4-4-4H12 C9.8,2,8,3.8,8,6v17.1" stroke-linejoin="miter" stroke-linecap="butt"></path><path fill="none" stroke="#000000" stroke-linecap="square" stroke-miterlimit="10" d="M46,42V28c0-2.8-2.2-5-5-5 l0,0c-2.8,0-5,2.2-5,5v4H12v-4c0-2.8-2.2-5-5-5l0,0c-2.8,0-5,2.2-5,5v14H46z" stroke-linejoin="miter"></path></g></g></symbol></defs><title id="MLC1574">Hogar y Muebles</title><use xlink:href="#nc-armchair" stroke="#3483FA" fill="none" stroke-width="2px">Hogar y Muebles</use></svg>