<svg xmlns:xlink="http://www.w3.org/1999/xlink" xmlns="http://www.w3.org/2000/svg" class="nc-icon" aria-labelledby="MLC1132" role="img" width="48"  height="48" ><defs><symbol id="nc-bear-2" viewBox="0 0 48 48"><g><g class="nc-icon-wrapper"><circle fill="none" stroke="#000000" stroke-linecap="square" stroke-miterlimit="10" cx="24" cy="26" r="20" stroke-linejoin="miter"></circle><polygon fill="none" stroke-linecap="square" stroke-miterlimit="10" points=" 24,33 27,29 21,29 " stroke-linejoin="miter"></polygon><polygon points="24,33 27,29 21,29 " stroke-linejoin="miter" stroke-linecap="square" fill="currentColor" stroke="none"></polygon><line fill="none" stroke-linecap="square" stroke-miterlimit="10" x1="24" y1="33" x2="24" y2="37" stroke-linejoin="miter"></line><line fill="none" stroke-linecap="square" stroke-miterlimit="10" x1="20" y1="37" x2="28" y2="37" stroke-linejoin="miter"></line><circle cx="17" cy="22" r="2" stroke-linejoin="miter" stroke-linecap="square" fill="currentColor" stroke="none"></circle><circle cx="31" cy="22" r="2" stroke-linejoin="miter" stroke-linecap="square" fill="currentColor" stroke="none"></circle><path fill="none" stroke="#000000" stroke-miterlimit="10" d="M13.942,8.71 C13.971,8.471,14,8.247,14,8c0-3.314-2.686-6-6-6S2,4.686,2,8s2.686,6,6,6" stroke-linejoin="miter" stroke-linecap="butt"></path><path fill="none" stroke="#000000" stroke-miterlimit="10" d="M34.058,8.71 C34.029,8.471,34,8.247,34,8c0-3.314,2.686-6,6-6s6,2.686,6,6s-2.686,6-6,6" stroke-linejoin="miter" stroke-linecap="butt"></path></g></g></symbol></defs><title id="MLC1132">Juegos y Juguetes</title><use xlink:href="#nc-bear-2" stroke="#3483FA" fill="none" stroke-width="2px">Juegos y Juguetes</use></svg>