<svg xmlns:xlink="http://www.w3.org/1999/xlink" xmlns="http://www.w3.org/2000/svg" class="nc-icon" aria-labelledby="MLC1384" role="img" width="48"  height="48" ><defs><symbol id="nc-baby" viewBox="0 0 48 48"><g><g class="nc-icon-wrapper"><path fill="none" stroke="#000000" stroke-linecap="square" stroke-miterlimit="10" d="M32,4c0,4.4-3.6,8-8,8 s-8-3.6-8-8h-6L2,8v12h8v16c4.4,0,8,3.6,8,8h12c0-4.4,3.6-8,8-8V20h8V8l-8-4H32z" stroke-linejoin="miter"></path><path fill="none" stroke-linecap="square" stroke-miterlimit="10" d="M27.2,19 c-1.3,0-2.5,0.7-3.2,1.7c-0.7-1-1.8-1.7-3.2-1.7c-2.1,0-3.8,1.7-3.8,3.7c0,3.7,7,9.3,7,9.3s7-5.6,7-9.3C31,20.7,29.3,19,27.2,19z" stroke-linejoin="miter"></path></g></g></symbol></defs><title id="MLC1384">Bebés</title><use xlink:href="#nc-baby" stroke="#3483FA" fill="none" stroke-width="2px">Bebés</use></svg>